<svg width="125" height="37" viewBox="0 0 125 37" fill="none" xmlns="http://www.w3.org/2000/svg">
<path d="M39.2826 29H35.7786V23.408L32.2266 12.2H35.4906L36.9786 17.312L37.4826 20.264H37.5786L38.0826 17.312L39.5706 12.2H42.8346L39.2826 23.408V29ZM49.9764 29H44.7444C43.1444 27.512 42.3444 25.48 42.3444 22.904C42.3444 21.608 42.5204 20.48 42.8724 19.52C43.2404 18.56 43.8164 17.632 44.6004 16.736H50.2164C51.0484 17.696 51.6164 18.632 51.9204 19.544C52.2244 20.44 52.3764 21.56 52.3764 22.904C52.3764 25.48 51.5764 27.512 49.9764 29ZM46.4484 26.48H48.2724C48.8484 25.36 49.1364 24.088 49.1364 22.664C49.1364 21.24 48.8404 20.104 48.2484 19.256H46.4484C45.8724 20.072 45.5844 21.232 45.5844 22.736C45.5844 24.224 45.8724 25.472 46.4484 26.48ZM58.3425 29H55.8225C55.1185 28.104 54.6385 27.208 54.3825 26.312C54.1265 25.416 53.9985 24.296 53.9985 22.952V16.736H57.1905V23.192C57.1905 24.648 57.4785 25.744 58.0545 26.48H60.2865V16.736H63.4785V29H60.9585L60.5265 28.136C59.9185 28.712 59.1905 29 58.3425 29ZM68.364 15.08H64.74V12.2H75.252V15.08H71.628V29H68.364V15.08ZM79.8113 29H77.2913C76.5873 28.104 76.1073 27.208 75.8513 26.312C75.5953 25.416 75.4673 24.296 75.4673 22.952V16.736H78.6593V23.192C78.6593 24.648 78.9473 25.744 79.5233 26.48H81.7553V16.736H84.9473V29H82.4273L81.9953 28.136C81.3873 28.712 80.6593 29 79.8113 29ZM87.0008 12.2H90.1688V17.6C90.5208 17.28 90.8488 17.056 91.1528 16.928C91.4728 16.8 91.9448 16.736 92.5688 16.736H94.4888C95.1608 17.392 95.6888 18.24 96.0728 19.28C96.4568 20.32 96.6488 21.464 96.6488 22.712C96.6488 25.384 95.8488 27.48 94.2488 29H91.9688C91.1848 29 90.5288 28.704 90.0008 28.112L89.5688 29H87.0008V12.2ZM90.1928 26.48H92.4968C93.0888 25.472 93.3848 24.248 93.3848 22.808C93.3848 21.368 93.0808 20.184 92.4728 19.256H90.1928V26.48ZM103.912 19.256H102.112C101.872 19.544 101.672 19.944 101.512 20.456C101.368 20.968 101.296 21.464 101.296 21.944H104.728C104.76 21.464 104.696 20.968 104.536 20.456C104.376 19.928 104.168 19.528 103.912 19.256ZM107.176 26.48V29H101.08C99.9599 28.248 99.1679 27.32 98.7039 26.216C98.2559 25.096 98.0319 23.968 98.0319 22.832C98.0319 20.208 99.0239 18.176 101.008 16.736H104.896C105.968 17.52 106.696 18.352 107.08 19.232C107.464 20.112 107.656 21 107.656 21.896C107.656 22.792 107.584 23.56 107.44 24.2H101.464C101.512 24.568 101.648 24.992 101.872 25.472C102.112 25.936 102.368 26.272 102.64 26.48H107.176Z" fill="black"/>
<path d="M28.9538 15.2953C29.1825 16.8613 29.2969 18.4049 29.2969 19.9262V22.0738L28.9538 26.7047C28.7709 28.0022 28.3821 28.9418 27.7874 29.5235C27.1471 30.1499 26.1865 30.5526 24.9058 30.7315C23.6708 30.821 22.1956 30.8881 20.4804 30.9329C18.7651 30.9776 17.3586 31 16.2608 31H14.6141C9.53692 30.9553 6.22073 30.8658 4.66554 30.7315L4.11666 30.6644L3.22471 30.5302L2.36708 30.1946L1.47514 29.5235L0.789026 28.4161L0.411666 27.1745L0.274444 26.7047C0.0914813 25.1387 0 23.5951 0 22.0738V19.9262L0.274444 15.2953C0.457406 13.9978 0.846202 13.0582 1.44083 12.4765C2.0812 11.8054 3.06462 11.4027 4.3911 11.2685C5.6261 11.179 7.0898 11.1119 8.7822 11.0671C10.4746 11.0224 11.8697 11 12.9675 11H14.6141C18.7308 11 22.1613 11.0895 24.9058 11.2685C26.1865 11.4027 27.1471 11.8054 27.7874 12.4765C27.9704 12.6555 28.1305 12.868 28.2677 13.1141C28.4049 13.3602 28.5193 13.6063 28.6108 13.8523C28.7022 14.0984 28.7709 14.3333 28.8166 14.557C28.8623 14.7808 28.9081 14.9597 28.9538 15.094V15.2953ZM18.5936 21.2013L19.5541 20.7315L11.6639 16.7047V24.7584L18.5936 21.2013Z" fill="#FF0D0D"/>
<path d="M106.986 16.0205C106.818 16.0205 106.695 16 106.617 15.959C106.544 15.9134 106.508 15.8451 106.508 15.7539V7.8584C106.508 7.72624 106.535 7.63281 106.59 7.57812C106.649 7.52344 106.743 7.49609 106.87 7.49609H109.331C110.042 7.49609 110.671 7.66699 111.218 8.00879C111.769 8.34603 112.045 8.9681 112.045 9.875C112.045 10.5495 111.888 11.0736 111.573 11.4473C111.259 11.8164 110.906 12.0648 110.514 12.1924C110.122 12.3154 109.769 12.377 109.454 12.377H107.567V15.7539C107.567 15.8451 107.529 15.9134 107.451 15.959C107.374 16 107.253 16.0205 107.089 16.0205H106.986ZM109.468 11.4541C109.673 11.4541 109.887 11.4108 110.11 11.3242C110.334 11.2331 110.527 11.0713 110.691 10.8389C110.855 10.6019 110.938 10.2806 110.938 9.875C110.938 9.33268 110.776 8.95443 110.452 8.74023C110.133 8.52604 109.748 8.41895 109.297 8.41895H107.567V11.4541H109.468ZM114.068 16.0205C113.74 16.0205 113.576 15.9316 113.576 15.7539V7.73535C113.576 7.55306 113.74 7.46191 114.068 7.46191H114.164C114.488 7.46191 114.649 7.55306 114.649 7.73535V11.4541H114.697L117.685 7.63965C117.739 7.5804 117.826 7.53711 117.944 7.50977C118.067 7.47786 118.202 7.46191 118.348 7.46191H118.464C118.601 7.46191 118.705 7.47786 118.778 7.50977C118.851 7.54167 118.888 7.5804 118.888 7.62598C118.888 7.69889 118.849 7.78092 118.771 7.87207L115.736 11.6592L119.414 15.6582C119.487 15.7357 119.523 15.7995 119.523 15.8496C119.523 15.918 119.482 15.9635 119.4 15.9863C119.323 16.0091 119.186 16.0205 118.99 16.0205H118.84C118.667 16.0205 118.528 16.0114 118.423 15.9932C118.323 15.9749 118.241 15.9316 118.177 15.8633L114.697 11.9531H114.649V15.7539C114.649 15.9316 114.488 16.0205 114.164 16.0205H114.068Z" fill="black"/>
</svg>
